<mxfile host="app.diagrams.net" agent="Mozilla/5.0 (Windows NT 10.0; Win64; x64) AppleWebKit/537.36 (KHTML, like Gecko) Chrome/129.0.0.0 Safari/537.36" version="24.7.16">
  <diagram name="Page-1" id="z2umzhSAZPERU6Xl_QCo">
    <mxGraphModel dx="13695" dy="4973" grid="1" gridSize="10" guides="1" tooltips="1" connect="1" arrows="1" fold="1" page="1" pageScale="1" pageWidth="827" pageHeight="1169" math="0" shadow="0">
      <root>
        <mxCell id="0" />
        <mxCell id="1" parent="0" />
        <mxCell id="JqF0MTTLDhTBCdcnNIAP-19" style="edgeStyle=orthogonalEdgeStyle;rounded=0;orthogonalLoop=1;jettySize=auto;html=1;entryX=0.5;entryY=0;entryDx=0;entryDy=0;" parent="1" source="JqF0MTTLDhTBCdcnNIAP-1" target="JqF0MTTLDhTBCdcnNIAP-17" edge="1">
          <mxGeometry relative="1" as="geometry" />
        </mxCell>
        <mxCell id="JqF0MTTLDhTBCdcnNIAP-25" style="edgeStyle=orthogonalEdgeStyle;rounded=0;orthogonalLoop=1;jettySize=auto;html=1;entryX=0.5;entryY=0;entryDx=0;entryDy=0;" parent="1" source="JqF0MTTLDhTBCdcnNIAP-1" target="JqF0MTTLDhTBCdcnNIAP-24" edge="1">
          <mxGeometry relative="1" as="geometry" />
        </mxCell>
        <mxCell id="JqF0MTTLDhTBCdcnNIAP-39" style="edgeStyle=orthogonalEdgeStyle;rounded=0;orthogonalLoop=1;jettySize=auto;html=1;entryX=0.5;entryY=0;entryDx=0;entryDy=0;" parent="1" source="JqF0MTTLDhTBCdcnNIAP-1" target="JqF0MTTLDhTBCdcnNIAP-38" edge="1">
          <mxGeometry relative="1" as="geometry" />
        </mxCell>
        <mxCell id="JqF0MTTLDhTBCdcnNIAP-55" style="edgeStyle=orthogonalEdgeStyle;rounded=0;orthogonalLoop=1;jettySize=auto;html=1;entryX=0.5;entryY=0;entryDx=0;entryDy=0;" parent="1" source="JqF0MTTLDhTBCdcnNIAP-1" target="JqF0MTTLDhTBCdcnNIAP-54" edge="1">
          <mxGeometry relative="1" as="geometry" />
        </mxCell>
        <mxCell id="JqF0MTTLDhTBCdcnNIAP-1" value="&lt;font style=&quot;font-size: 140px;&quot;&gt;Shengiki no Kyojin&amp;nbsp;&lt;/font&gt;&lt;div style=&quot;font-size: 140px;&quot;&gt;&lt;font style=&quot;font-size: 140px;&quot;&gt;(Attack on Titan)&lt;/font&gt;&lt;/div&gt;" style="rounded=0;whiteSpace=wrap;html=1;fillColor=#ffe6cc;strokeColor=#d79b00;" parent="1" vertex="1">
          <mxGeometry x="-1060" y="230" width="1583" height="560" as="geometry" />
        </mxCell>
        <mxCell id="lRVaUMlQe8sPBL5cJsWr-19" style="edgeStyle=orthogonalEdgeStyle;rounded=0;orthogonalLoop=1;jettySize=auto;html=1;entryX=0.5;entryY=0;entryDx=0;entryDy=0;" edge="1" parent="1" source="JqF0MTTLDhTBCdcnNIAP-17" target="lRVaUMlQe8sPBL5cJsWr-2">
          <mxGeometry relative="1" as="geometry" />
        </mxCell>
        <mxCell id="lRVaUMlQe8sPBL5cJsWr-20" style="edgeStyle=orthogonalEdgeStyle;rounded=0;orthogonalLoop=1;jettySize=auto;html=1;entryX=0.5;entryY=0;entryDx=0;entryDy=0;" edge="1" parent="1" source="JqF0MTTLDhTBCdcnNIAP-17" target="lRVaUMlQe8sPBL5cJsWr-3">
          <mxGeometry relative="1" as="geometry" />
        </mxCell>
        <mxCell id="JqF0MTTLDhTBCdcnNIAP-17" value="&lt;font style=&quot;font-size: 72px;&quot;&gt;Moments&lt;/font&gt;" style="rounded=0;whiteSpace=wrap;html=1;fillColor=#dae8fc;strokeColor=#6c8ebf;" parent="1" vertex="1">
          <mxGeometry x="-2950" y="898" width="624.5" height="305" as="geometry" />
        </mxCell>
        <mxCell id="lRVaUMlQe8sPBL5cJsWr-22" style="edgeStyle=orthogonalEdgeStyle;rounded=0;orthogonalLoop=1;jettySize=auto;html=1;entryX=0.5;entryY=0;entryDx=0;entryDy=0;" edge="1" parent="1" source="JqF0MTTLDhTBCdcnNIAP-24" target="lRVaUMlQe8sPBL5cJsWr-21">
          <mxGeometry relative="1" as="geometry" />
        </mxCell>
        <mxCell id="JqF0MTTLDhTBCdcnNIAP-24" value="&lt;font style=&quot;font-size: 72px;&quot;&gt;Fights (Top 5)&lt;/font&gt;" style="rounded=0;whiteSpace=wrap;html=1;fillColor=#dae8fc;strokeColor=#6c8ebf;" parent="1" vertex="1">
          <mxGeometry x="-1558" y="1307" width="635" height="315" as="geometry" />
        </mxCell>
        <mxCell id="JqF0MTTLDhTBCdcnNIAP-51" style="edgeStyle=orthogonalEdgeStyle;rounded=0;orthogonalLoop=1;jettySize=auto;html=1;entryX=0.5;entryY=0;entryDx=0;entryDy=0;" parent="1" source="JqF0MTTLDhTBCdcnNIAP-38" target="JqF0MTTLDhTBCdcnNIAP-42" edge="1">
          <mxGeometry relative="1" as="geometry" />
        </mxCell>
        <mxCell id="JqF0MTTLDhTBCdcnNIAP-38" value="&lt;font style=&quot;font-size: 72px;&quot;&gt;Seasons&lt;/font&gt;" style="rounded=0;whiteSpace=wrap;html=1;fillColor=#dae8fc;strokeColor=#6c8ebf;" parent="1" vertex="1">
          <mxGeometry x="1295" y="1169" width="629" height="306.5" as="geometry" />
        </mxCell>
        <mxCell id="lRVaUMlQe8sPBL5cJsWr-114" style="edgeStyle=orthogonalEdgeStyle;rounded=0;orthogonalLoop=1;jettySize=auto;html=1;entryX=0.5;entryY=0;entryDx=0;entryDy=0;" edge="1" parent="1" source="JqF0MTTLDhTBCdcnNIAP-42" target="lRVaUMlQe8sPBL5cJsWr-106">
          <mxGeometry relative="1" as="geometry" />
        </mxCell>
        <mxCell id="lRVaUMlQe8sPBL5cJsWr-115" style="edgeStyle=orthogonalEdgeStyle;rounded=0;orthogonalLoop=1;jettySize=auto;html=1;entryX=0.5;entryY=0;entryDx=0;entryDy=0;" edge="1" parent="1" source="JqF0MTTLDhTBCdcnNIAP-42" target="JqF0MTTLDhTBCdcnNIAP-48">
          <mxGeometry relative="1" as="geometry" />
        </mxCell>
        <mxCell id="JqF0MTTLDhTBCdcnNIAP-42" value="&lt;font style=&quot;font-size: 60px;&quot;&gt;Best&lt;/font&gt;" style="rounded=1;whiteSpace=wrap;html=1;fillColor=#f8cecc;strokeColor=#b85450;" parent="1" vertex="1">
          <mxGeometry x="1922" y="1799" width="358" height="170" as="geometry" />
        </mxCell>
        <mxCell id="lRVaUMlQe8sPBL5cJsWr-116" style="edgeStyle=orthogonalEdgeStyle;rounded=0;orthogonalLoop=1;jettySize=auto;html=1;entryX=0.5;entryY=0;entryDx=0;entryDy=0;" edge="1" parent="1" source="JqF0MTTLDhTBCdcnNIAP-48" target="lRVaUMlQe8sPBL5cJsWr-41">
          <mxGeometry relative="1" as="geometry" />
        </mxCell>
        <mxCell id="JqF0MTTLDhTBCdcnNIAP-48" value="&lt;span style=&quot;font-size: 30px;&quot;&gt;underrated&lt;/span&gt;" style="rounded=1;whiteSpace=wrap;html=1;fillColor=#fff2cc;strokeColor=#d6b656;" parent="1" vertex="1">
          <mxGeometry x="2192" y="2081" width="310" height="98" as="geometry" />
        </mxCell>
        <mxCell id="lRVaUMlQe8sPBL5cJsWr-112" style="edgeStyle=orthogonalEdgeStyle;rounded=0;orthogonalLoop=1;jettySize=auto;html=1;entryX=0.5;entryY=0;entryDx=0;entryDy=0;" edge="1" parent="1" source="JqF0MTTLDhTBCdcnNIAP-53" target="lRVaUMlQe8sPBL5cJsWr-109">
          <mxGeometry relative="1" as="geometry" />
        </mxCell>
        <mxCell id="lRVaUMlQe8sPBL5cJsWr-113" style="edgeStyle=orthogonalEdgeStyle;rounded=0;orthogonalLoop=1;jettySize=auto;html=1;entryX=0.5;entryY=0;entryDx=0;entryDy=0;" edge="1" parent="1" source="JqF0MTTLDhTBCdcnNIAP-53" target="lRVaUMlQe8sPBL5cJsWr-110">
          <mxGeometry relative="1" as="geometry" />
        </mxCell>
        <mxCell id="JqF0MTTLDhTBCdcnNIAP-53" value="&lt;font style=&quot;font-size: 60px;&quot;&gt;Openings/Endings&lt;/font&gt;" style="rounded=1;whiteSpace=wrap;html=1;fillColor=#f8cecc;strokeColor=#b85450;" parent="1" vertex="1">
          <mxGeometry x="768.75" y="1799" width="570" height="210" as="geometry" />
        </mxCell>
        <mxCell id="lRVaUMlQe8sPBL5cJsWr-95" style="edgeStyle=orthogonalEdgeStyle;rounded=0;orthogonalLoop=1;jettySize=auto;html=1;entryX=0.5;entryY=0;entryDx=0;entryDy=0;" edge="1" parent="1" source="JqF0MTTLDhTBCdcnNIAP-54" target="lRVaUMlQe8sPBL5cJsWr-94">
          <mxGeometry relative="1" as="geometry" />
        </mxCell>
        <mxCell id="lRVaUMlQe8sPBL5cJsWr-122" style="edgeStyle=orthogonalEdgeStyle;rounded=0;orthogonalLoop=1;jettySize=auto;html=1;entryX=0.5;entryY=0;entryDx=0;entryDy=0;" edge="1" parent="1" source="JqF0MTTLDhTBCdcnNIAP-54" target="lRVaUMlQe8sPBL5cJsWr-17">
          <mxGeometry relative="1" as="geometry" />
        </mxCell>
        <mxCell id="JqF0MTTLDhTBCdcnNIAP-54" value="&lt;font style=&quot;font-size: 72px;&quot;&gt;Story&lt;/font&gt;" style="rounded=0;whiteSpace=wrap;html=1;fillColor=#dae8fc;strokeColor=#6c8ebf;" parent="1" vertex="1">
          <mxGeometry x="-581.87" y="2550" width="626.75" height="308" as="geometry" />
        </mxCell>
        <mxCell id="lRVaUMlQe8sPBL5cJsWr-46" style="edgeStyle=orthogonalEdgeStyle;rounded=0;orthogonalLoop=1;jettySize=auto;html=1;entryX=0.5;entryY=0;entryDx=0;entryDy=0;" edge="1" parent="1" target="lRVaUMlQe8sPBL5cJsWr-45">
          <mxGeometry relative="1" as="geometry">
            <mxPoint x="1253.75" y="2568.5" as="sourcePoint" />
          </mxGeometry>
        </mxCell>
        <mxCell id="lRVaUMlQe8sPBL5cJsWr-48" style="edgeStyle=orthogonalEdgeStyle;rounded=0;orthogonalLoop=1;jettySize=auto;html=1;entryX=0.5;entryY=0;entryDx=0;entryDy=0;" edge="1" parent="1" source="lRVaUMlQe8sPBL5cJsWr-110" target="lRVaUMlQe8sPBL5cJsWr-47">
          <mxGeometry relative="1" as="geometry">
            <mxPoint x="823.75" y="2568.5" as="sourcePoint" />
          </mxGeometry>
        </mxCell>
        <mxCell id="lRVaUMlQe8sPBL5cJsWr-100" style="edgeStyle=orthogonalEdgeStyle;rounded=0;orthogonalLoop=1;jettySize=auto;html=1;entryX=0.5;entryY=0;entryDx=0;entryDy=0;" edge="1" parent="1" source="lRVaUMlQe8sPBL5cJsWr-2" target="lRVaUMlQe8sPBL5cJsWr-35">
          <mxGeometry relative="1" as="geometry" />
        </mxCell>
        <mxCell id="lRVaUMlQe8sPBL5cJsWr-2" value="&lt;font style=&quot;font-size: 36px;&quot;&gt;Cold&lt;/font&gt;&lt;span style=&quot;color: rgba(0, 0, 0, 0); font-family: monospace; text-align: start; text-wrap: nowrap; font-size: 0px;&quot;&gt;%3CmxGraphModel%3E%3Croot%3E%3CmxCell%20id%3D%220%22%2F%3E%3CmxCell%20id%3D%221%22%20parent%3D%220%22%2F%3E%3CmxCell%20id%3D%222%22%20value%3D%22%26lt%3Bfont%20style%3D%26quot%3Bfont-size%3A%2036px%3B%26quot%3B%26gt%3BSad%26lt%3B%2Ffont%26gt%3B%22%20style%3D%22rounded%3D1%3BwhiteSpace%3Dwrap%3Bhtml%3D1%3B%22%20vertex%3D%221%22%20parent%3D%221%22%3E%3CmxGeometry%20x%3D%22-1794%22%20y%3D%22490%22%20width%3D%22194%22%20height%3D%2270%22%20as%3D%22geometry%22%2F%3E%3C%2FmxCell%3E%3C%2Froot%3E%3C%2FmxGraphModel%3E&lt;/span&gt;" style="rounded=1;whiteSpace=wrap;html=1;fillColor=#f8cecc;strokeColor=#b85450;" vertex="1" parent="1">
          <mxGeometry x="-2422" y="1378" width="352" height="142" as="geometry" />
        </mxCell>
        <mxCell id="lRVaUMlQe8sPBL5cJsWr-101" style="edgeStyle=orthogonalEdgeStyle;rounded=0;orthogonalLoop=1;jettySize=auto;html=1;entryX=0.5;entryY=0;entryDx=0;entryDy=0;" edge="1" parent="1" source="lRVaUMlQe8sPBL5cJsWr-3" target="lRVaUMlQe8sPBL5cJsWr-37">
          <mxGeometry relative="1" as="geometry" />
        </mxCell>
        <mxCell id="lRVaUMlQe8sPBL5cJsWr-3" value="&lt;font style=&quot;font-size: 36px;&quot;&gt;Sad&lt;/font&gt;" style="rounded=1;whiteSpace=wrap;html=1;fillColor=#f8cecc;strokeColor=#b85450;" vertex="1" parent="1">
          <mxGeometry x="-3150" y="1383" width="360" height="132" as="geometry" />
        </mxCell>
        <mxCell id="lRVaUMlQe8sPBL5cJsWr-16" style="edgeStyle=orthogonalEdgeStyle;rounded=0;orthogonalLoop=1;jettySize=auto;html=1;entryX=0.5;entryY=0;entryDx=0;entryDy=0;" edge="1" parent="1" source="lRVaUMlQe8sPBL5cJsWr-7" target="lRVaUMlQe8sPBL5cJsWr-12">
          <mxGeometry relative="1" as="geometry" />
        </mxCell>
        <mxCell id="lRVaUMlQe8sPBL5cJsWr-7" value="&lt;font style=&quot;font-size: 72px;&quot;&gt;Main ideas (Focusing on JavaScript)&lt;/font&gt;" style="rounded=0;whiteSpace=wrap;html=1;fillColor=#dae8fc;strokeColor=#6c8ebf;" vertex="1" parent="1">
          <mxGeometry x="-2580" y="3500" width="1048.5" height="490" as="geometry" />
        </mxCell>
        <mxCell id="lRVaUMlQe8sPBL5cJsWr-12" value="&lt;ul style=&quot;font-size: 34px;&quot;&gt;&lt;li&gt;&lt;span style=&quot;background-color: initial;&quot;&gt;&lt;font style=&quot;font-size: 34px;&quot;&gt;&lt;b&gt;Interactive map (Marley paradise)&lt;/b&gt;&lt;/font&gt;&lt;/span&gt;&lt;/li&gt;&lt;li&gt;&lt;span style=&quot;&quot;&gt;&lt;b&gt;Walls simulation&lt;/b&gt;&lt;/span&gt;&lt;/li&gt;&lt;li&gt;&lt;span style=&quot;&quot;&gt;&lt;b&gt;Manga vs Anime&lt;/b&gt;&lt;/span&gt;&lt;/li&gt;&lt;li&gt;&lt;span style=&quot;&quot;&gt;&lt;b&gt;fallen heros last moments&lt;/b&gt;&lt;/span&gt;&lt;/li&gt;&lt;li&gt;&lt;span style=&quot;&quot;&gt;&lt;b&gt;Deaths Counter&lt;/b&gt;&lt;/span&gt;&lt;/li&gt;&lt;li&gt;&lt;span style=&quot;&quot;&gt;&lt;b&gt;9 Titans Powers hover&lt;/b&gt;&lt;/span&gt;&lt;/li&gt;&lt;/ul&gt;" style="text;html=1;whiteSpace=wrap;verticalAlign=middle;overflow=hidden;fillColor=#e1d5e7;strokeColor=#9673a6;dashed=1;rounded=1;" vertex="1" parent="1">
          <mxGeometry x="-2359.87" y="4250" width="608.25" height="478" as="geometry" />
        </mxCell>
        <mxCell id="lRVaUMlQe8sPBL5cJsWr-66" style="edgeStyle=orthogonalEdgeStyle;rounded=0;orthogonalLoop=1;jettySize=auto;html=1;entryX=0.5;entryY=0;entryDx=0;entryDy=0;" edge="1" parent="1" source="lRVaUMlQe8sPBL5cJsWr-17" target="lRVaUMlQe8sPBL5cJsWr-64">
          <mxGeometry relative="1" as="geometry" />
        </mxCell>
        <mxCell id="lRVaUMlQe8sPBL5cJsWr-17" value="&lt;font style=&quot;font-size: 72px;&quot;&gt;Main Characters&lt;/font&gt;" style="rounded=0;whiteSpace=wrap;html=1;fillColor=#dae8fc;strokeColor=#6c8ebf;" vertex="1" parent="1">
          <mxGeometry x="780.6300000000001" y="3920" width="638.75" height="310" as="geometry" />
        </mxCell>
        <mxCell id="lRVaUMlQe8sPBL5cJsWr-21" value="&lt;ol style=&quot;font-size: 18px;&quot;&gt;&lt;li&gt;&lt;font style=&quot;font-size: 18px;&quot;&gt;&lt;i&gt;Eren Vs Reiner&amp;nbsp;&lt;/i&gt;&lt;/font&gt;&lt;/li&gt;&lt;li&gt;&lt;font style=&quot;font-size: 18px;&quot;&gt;&lt;i&gt;Levi Vs Zeke (Round 1)&lt;/i&gt;&lt;/font&gt;&lt;/li&gt;&lt;li&gt;&lt;font style=&quot;font-size: 18px;&quot;&gt;&lt;i&gt;Eren &amp;amp; Zeke Vs Marley&lt;/i&gt;&lt;/font&gt;&lt;/li&gt;&lt;li&gt;&lt;font style=&quot;font-size: 18px;&quot;&gt;&lt;i&gt;Eren Vs Annie (Round 2)&lt;/i&gt;&lt;/font&gt;&lt;/li&gt;&lt;li&gt;&lt;font style=&quot;font-size: 18px;&quot;&gt;&lt;i&gt;Levi Squad Vs Kenny Squad&lt;/i&gt;&lt;/font&gt;&lt;/li&gt;&lt;/ol&gt;" style="text;strokeColor=#9673a6;fillColor=#e1d5e7;html=1;whiteSpace=wrap;verticalAlign=middle;overflow=hidden;rounded=1;glass=0;align=left;dashed=1;" vertex="1" parent="1">
          <mxGeometry x="-1409.5" y="1870" width="320" height="190" as="geometry" />
        </mxCell>
        <mxCell id="lRVaUMlQe8sPBL5cJsWr-35" value="&lt;ol style=&quot;font-size: 25px;&quot;&gt;&lt;li style=&quot;font-size: 25px;&quot;&gt;Declreation of War&lt;/li&gt;&lt;li style=&quot;font-size: 25px;&quot;&gt;Erwin Charge&lt;/li&gt;&lt;li style=&quot;font-size: 25px;&quot;&gt;Now or never Mikasa&lt;/li&gt;&lt;/ol&gt;" style="text;strokeColor=#9673a6;fillColor=#e1d5e7;html=1;whiteSpace=wrap;verticalAlign=middle;overflow=hidden;rounded=1;dashed=1;dashPattern=8 8;fontSize=25;" vertex="1" parent="1">
          <mxGeometry x="-2250" y="2096" width="297.75" height="230" as="geometry" />
        </mxCell>
        <mxCell id="lRVaUMlQe8sPBL5cJsWr-37" value="&lt;ol style=&quot;font-size: 25px;&quot;&gt;&lt;li style=&quot;font-size: 25px;&quot;&gt;Eren&#39;s Death&lt;/li&gt;&lt;li style=&quot;font-size: 25px;&quot;&gt;Hange&#39;s Death&lt;/li&gt;&lt;li style=&quot;font-size: 25px;&quot;&gt;Sasha&#39;s Death&lt;/li&gt;&lt;/ol&gt;" style="text;strokeColor=#9673a6;fillColor=#e1d5e7;html=1;whiteSpace=wrap;verticalAlign=middle;overflow=hidden;rounded=1;dashed=1;dashPattern=8 8;fontSize=25;" vertex="1" parent="1">
          <mxGeometry x="-3320" y="2108" width="260" height="230" as="geometry" />
        </mxCell>
        <mxCell id="lRVaUMlQe8sPBL5cJsWr-40" value="&lt;ol style=&quot;font-size: 25px;&quot;&gt;&lt;li&gt;Season 4 (Part 2)&lt;/li&gt;&lt;li&gt;Season 3&lt;/li&gt;&lt;/ol&gt;" style="text;strokeColor=#9673a6;fillColor=#e1d5e7;html=1;whiteSpace=wrap;verticalAlign=middle;overflow=hidden;rounded=1;glass=0;align=left;dashed=1;" vertex="1" parent="1">
          <mxGeometry x="1645" y="2359" width="260" height="115.5" as="geometry" />
        </mxCell>
        <mxCell id="lRVaUMlQe8sPBL5cJsWr-41" value="&lt;font style=&quot;font-size: 25px;&quot;&gt;Season 2&lt;/font&gt;" style="text;strokeColor=#9673a6;fillColor=#e1d5e7;html=1;whiteSpace=wrap;verticalAlign=middle;overflow=hidden;rounded=1;glass=0;align=center;dashed=1;" vertex="1" parent="1">
          <mxGeometry x="2247" y="2359" width="200" height="80" as="geometry" />
        </mxCell>
        <mxCell id="lRVaUMlQe8sPBL5cJsWr-45" value="&lt;ol style=&quot;font-size: 25px;&quot;&gt;&lt;li style=&quot;font-size: 25px;&quot;&gt;Season 2&lt;/li&gt;&lt;li style=&quot;font-size: 25px;&quot;&gt;Season 1&amp;nbsp;&lt;/li&gt;&lt;li style=&quot;font-size: 25px;&quot;&gt;Season 4 (My War)&lt;/li&gt;&lt;/ol&gt;" style="text;strokeColor=#9673a6;fillColor=#e1d5e7;html=1;whiteSpace=wrap;verticalAlign=middle;overflow=hidden;rounded=1;glass=0;align=left;dashed=1;fontSize=25;" vertex="1" parent="1">
          <mxGeometry x="1108.75" y="2839" width="290" height="160" as="geometry" />
        </mxCell>
        <mxCell id="lRVaUMlQe8sPBL5cJsWr-47" value="&lt;ol style=&quot;font-size: 25px;&quot;&gt;&lt;li&gt;Season 4 (Part 2)&lt;/li&gt;&lt;li&gt;Season 3 (Part 1)&lt;/li&gt;&lt;/ol&gt;" style="text;strokeColor=#9673a6;fillColor=#e1d5e7;html=1;whiteSpace=wrap;verticalAlign=middle;overflow=hidden;rounded=1;glass=0;align=left;dashed=1;" vertex="1" parent="1">
          <mxGeometry x="710.6300000000001" y="2839" width="248.75" height="150" as="geometry" />
        </mxCell>
        <mxCell id="lRVaUMlQe8sPBL5cJsWr-49" style="edgeStyle=orthogonalEdgeStyle;rounded=0;orthogonalLoop=1;jettySize=auto;html=1;entryX=0.5;entryY=0;entryDx=0;entryDy=0;" edge="1" source="lRVaUMlQe8sPBL5cJsWr-51" target="lRVaUMlQe8sPBL5cJsWr-57" parent="1">
          <mxGeometry relative="1" as="geometry" />
        </mxCell>
        <mxCell id="lRVaUMlQe8sPBL5cJsWr-50" style="edgeStyle=orthogonalEdgeStyle;rounded=0;orthogonalLoop=1;jettySize=auto;html=1;entryX=0.5;entryY=0;entryDx=0;entryDy=0;" edge="1" source="lRVaUMlQe8sPBL5cJsWr-51" target="lRVaUMlQe8sPBL5cJsWr-58" parent="1">
          <mxGeometry relative="1" as="geometry" />
        </mxCell>
        <mxCell id="lRVaUMlQe8sPBL5cJsWr-51" value="&lt;span style=&quot;font-size: 24px;&quot;&gt;Best&lt;/span&gt;" style="rounded=1;whiteSpace=wrap;html=1;fillColor=#f8cecc;strokeColor=#b85450;" vertex="1" parent="1">
          <mxGeometry x="611" y="5350" width="130" height="60" as="geometry" />
        </mxCell>
        <mxCell id="lRVaUMlQe8sPBL5cJsWr-52" style="edgeStyle=orthogonalEdgeStyle;rounded=0;orthogonalLoop=1;jettySize=auto;html=1;entryX=0.5;entryY=0;entryDx=0;entryDy=0;" edge="1" source="lRVaUMlQe8sPBL5cJsWr-54" target="lRVaUMlQe8sPBL5cJsWr-56" parent="1">
          <mxGeometry relative="1" as="geometry" />
        </mxCell>
        <mxCell id="lRVaUMlQe8sPBL5cJsWr-53" style="edgeStyle=orthogonalEdgeStyle;rounded=0;orthogonalLoop=1;jettySize=auto;html=1;entryX=0.5;entryY=0;entryDx=0;entryDy=0;" edge="1" source="lRVaUMlQe8sPBL5cJsWr-54" target="lRVaUMlQe8sPBL5cJsWr-55" parent="1">
          <mxGeometry relative="1" as="geometry" />
        </mxCell>
        <mxCell id="lRVaUMlQe8sPBL5cJsWr-54" value="&lt;font style=&quot;font-size: 24px;&quot;&gt;Worst&lt;/font&gt;" style="rounded=1;whiteSpace=wrap;html=1;fillColor=#f8cecc;strokeColor=#b85450;" vertex="1" parent="1">
          <mxGeometry x="1465" y="5340" width="130" height="60" as="geometry" />
        </mxCell>
        <mxCell id="lRVaUMlQe8sPBL5cJsWr-93" style="edgeStyle=orthogonalEdgeStyle;rounded=0;orthogonalLoop=1;jettySize=auto;html=1;entryX=0.5;entryY=0;entryDx=0;entryDy=0;" edge="1" parent="1" source="lRVaUMlQe8sPBL5cJsWr-55" target="lRVaUMlQe8sPBL5cJsWr-92">
          <mxGeometry relative="1" as="geometry" />
        </mxCell>
        <mxCell id="lRVaUMlQe8sPBL5cJsWr-55" value="&lt;font style=&quot;font-size: 18px;&quot;&gt;Overrated&lt;/font&gt;" style="rounded=1;whiteSpace=wrap;html=1;fillColor=#b0e3e6;strokeColor=#0e8088;" vertex="1" parent="1">
          <mxGeometry x="1675" y="5477" width="120" height="55" as="geometry" />
        </mxCell>
        <mxCell id="lRVaUMlQe8sPBL5cJsWr-91" style="edgeStyle=orthogonalEdgeStyle;rounded=0;orthogonalLoop=1;jettySize=auto;html=1;entryX=0.5;entryY=0;entryDx=0;entryDy=0;" edge="1" parent="1" source="lRVaUMlQe8sPBL5cJsWr-56" target="lRVaUMlQe8sPBL5cJsWr-90">
          <mxGeometry relative="1" as="geometry" />
        </mxCell>
        <mxCell id="lRVaUMlQe8sPBL5cJsWr-56" value="&lt;font style=&quot;font-size: 18px;&quot;&gt;Hated&lt;/font&gt;" style="rounded=1;whiteSpace=wrap;html=1;fillColor=#b0e3e6;strokeColor=#0e8088;" vertex="1" parent="1">
          <mxGeometry x="1282" y="5475" width="120" height="55" as="geometry" />
        </mxCell>
        <mxCell id="lRVaUMlQe8sPBL5cJsWr-89" style="edgeStyle=orthogonalEdgeStyle;rounded=0;orthogonalLoop=1;jettySize=auto;html=1;entryX=0.5;entryY=0;entryDx=0;entryDy=0;" edge="1" parent="1" source="lRVaUMlQe8sPBL5cJsWr-57" target="lRVaUMlQe8sPBL5cJsWr-88">
          <mxGeometry relative="1" as="geometry" />
        </mxCell>
        <mxCell id="lRVaUMlQe8sPBL5cJsWr-57" value="&lt;font style=&quot;font-size: 18px;&quot;&gt;Underrated&lt;/font&gt;&lt;span style=&quot;color: rgba(0, 0, 0, 0); font-family: monospace; font-size: 0px; text-align: start; text-wrap: nowrap;&quot;&gt;%3CmxGraphModel%3E%3Croot%3E%3CmxCell%20id%3D%220%22%2F%3E%3CmxCell%20id%3D%221%22%20parent%3D%220%22%2F%3E%3CmxCell%20id%3D%222%22%20value%3D%22%26lt%3Bfont%20style%3D%26quot%3Bfont-size%3A%2018px%3B%26quot%3B%26gt%3BHated%26lt%3B%2Ffont%26gt%3B%22%20style%3D%22rounded%3D1%3BwhiteSpace%3Dwrap%3Bhtml%3D1%3B%22%20vertex%3D%221%22%20parent%3D%221%22%3E%3CmxGeometry%20x%3D%221550%22%20y%3D%22555%22%20width%3D%22120%22%20height%3D%2255%22%20as%3D%22geometry%22%2F%3E%3C%2FmxCell%3E%3C%2Froot%3E%3C%2FmxGraphModel%3E&lt;/span&gt;" style="rounded=1;whiteSpace=wrap;html=1;fillColor=#b0e3e6;strokeColor=#0e8088;" vertex="1" parent="1">
          <mxGeometry x="855" y="5487" width="120" height="55" as="geometry" />
        </mxCell>
        <mxCell id="lRVaUMlQe8sPBL5cJsWr-87" style="edgeStyle=orthogonalEdgeStyle;rounded=0;orthogonalLoop=1;jettySize=auto;html=1;entryX=0.5;entryY=0;entryDx=0;entryDy=0;" edge="1" parent="1" source="lRVaUMlQe8sPBL5cJsWr-58" target="lRVaUMlQe8sPBL5cJsWr-86">
          <mxGeometry relative="1" as="geometry" />
        </mxCell>
        <mxCell id="lRVaUMlQe8sPBL5cJsWr-58" value="&lt;font style=&quot;font-size: 18px;&quot;&gt;Best&lt;/font&gt;" style="rounded=1;whiteSpace=wrap;html=1;fillColor=#b0e3e6;strokeColor=#0e8088;" vertex="1" parent="1">
          <mxGeometry x="395" y="5487" width="120" height="55" as="geometry" />
        </mxCell>
        <mxCell id="lRVaUMlQe8sPBL5cJsWr-59" value="" style="shape=curlyBracket;whiteSpace=wrap;html=1;rounded=1;labelPosition=left;verticalLabelPosition=middle;align=right;verticalAlign=middle;size=0;" vertex="1" parent="1">
          <mxGeometry x="240" y="4800" width="15" height="1270" as="geometry" />
        </mxCell>
        <mxCell id="lRVaUMlQe8sPBL5cJsWr-79" style="edgeStyle=orthogonalEdgeStyle;rounded=0;orthogonalLoop=1;jettySize=auto;html=1;entryX=0.5;entryY=0;entryDx=0;entryDy=0;" edge="1" parent="1" source="lRVaUMlQe8sPBL5cJsWr-64" target="lRVaUMlQe8sPBL5cJsWr-51">
          <mxGeometry relative="1" as="geometry" />
        </mxCell>
        <mxCell id="lRVaUMlQe8sPBL5cJsWr-80" style="edgeStyle=orthogonalEdgeStyle;rounded=0;orthogonalLoop=1;jettySize=auto;html=1;entryX=0.5;entryY=0;entryDx=0;entryDy=0;" edge="1" parent="1" source="lRVaUMlQe8sPBL5cJsWr-64" target="lRVaUMlQe8sPBL5cJsWr-54">
          <mxGeometry relative="1" as="geometry" />
        </mxCell>
        <mxCell id="lRVaUMlQe8sPBL5cJsWr-64" value="" style="rounded=1;whiteSpace=wrap;html=1;" vertex="1" parent="1">
          <mxGeometry x="872.5" y="4800" width="455" height="350" as="geometry" />
        </mxCell>
        <mxCell id="lRVaUMlQe8sPBL5cJsWr-77" value="&lt;ul style=&quot;font-size: 15px;&quot;&gt;&lt;li&gt;&lt;li&gt;Eren Yeager&lt;/li&gt;&lt;li&gt;Mikasa Ackerman&lt;/li&gt;&lt;li&gt;Armin Arlert&lt;/li&gt;&lt;li&gt;Levi Ackerman&lt;/li&gt;&lt;li&gt;Erwin Smith&lt;/li&gt;&lt;li&gt;Hange Zoë&lt;/li&gt;&lt;li&gt;Jean Kirstein&lt;/li&gt;&lt;li&gt;Sasha Blouse&lt;/li&gt;&lt;li&gt;Connie Springer&lt;/li&gt;&lt;li&gt;Reiner Braun&lt;/li&gt;&lt;/li&gt;&lt;/ul&gt;" style="text;strokeColor=default;fillColor=none;html=1;whiteSpace=wrap;verticalAlign=middle;overflow=hidden;dashed=1;dashPattern=1 1;" vertex="1" parent="1">
          <mxGeometry x="900" y="4880" width="165" height="210" as="geometry" />
        </mxCell>
        <mxCell id="lRVaUMlQe8sPBL5cJsWr-78" value="&lt;ul style=&quot;font-size: 15px;&quot;&gt;&lt;li&gt;Bertholdt Hoover&lt;/li&gt;&lt;li&gt;Annie Leonhart&lt;/li&gt;&lt;li&gt;Zeke Yeager&lt;/li&gt;&lt;li&gt;Historia Reiss&lt;/li&gt;&lt;li&gt;Ymir&lt;/li&gt;&lt;li&gt;Porco Galliard&lt;/li&gt;&lt;li&gt;Pieck Finger&lt;/li&gt;&lt;li&gt;Falco Grice&lt;/li&gt;&lt;li&gt;Gabi Braun&lt;/li&gt;&lt;li&gt;Kenny Ackerman&lt;/li&gt;&lt;li&gt;Eren Kruger&lt;/li&gt;&lt;li&gt;Yelena&lt;/li&gt;&lt;/ul&gt;" style="text;strokeColor=default;fillColor=none;html=1;whiteSpace=wrap;verticalAlign=middle;overflow=hidden;dashed=1;dashPattern=1 1;" vertex="1" parent="1">
          <mxGeometry x="1138" y="4880" width="165" height="250" as="geometry" />
        </mxCell>
        <mxCell id="lRVaUMlQe8sPBL5cJsWr-82" value="" style="line;strokeWidth=2;direction=south;html=1;" vertex="1" parent="1">
          <mxGeometry x="-750" y="1300" width="10" height="1014" as="geometry" />
        </mxCell>
        <mxCell id="lRVaUMlQe8sPBL5cJsWr-84" value="" style="line;strokeWidth=2;direction=south;html=1;" vertex="1" parent="1">
          <mxGeometry x="-1646" y="1076" width="10" height="1014" as="geometry" />
        </mxCell>
        <mxCell id="lRVaUMlQe8sPBL5cJsWr-86" value="&lt;ul&gt;&lt;li&gt;&lt;font style=&quot;font-size: 19px;&quot;&gt;Eren Yeager&amp;nbsp;&lt;/font&gt;&lt;/li&gt;&lt;li&gt;&lt;font style=&quot;font-size: 19px;&quot;&gt;Mikasa Ackerman&amp;nbsp;&lt;/font&gt;&lt;/li&gt;&lt;li&gt;&lt;font style=&quot;font-size: 19px;&quot;&gt;Armin Alert&lt;/font&gt;&lt;/li&gt;&lt;li&gt;&lt;font style=&quot;font-size: 19px;&quot;&gt;Erwin Smith&lt;/font&gt;&lt;/li&gt;&lt;li&gt;&lt;span style=&quot;font-size: 19px;&quot;&gt;Levi Ackerman&amp;nbsp;&lt;/span&gt;&lt;/li&gt;&lt;li&gt;&lt;span style=&quot;font-size: 19px;&quot;&gt;Sasha Braus&lt;/span&gt;&lt;/li&gt;&lt;li&gt;&lt;span style=&quot;font-size: 19px;&quot;&gt;Jean Christen&lt;/span&gt;&lt;/li&gt;&lt;li&gt;&lt;span style=&quot;font-size: 19px;&quot;&gt;Pieck Finger&lt;/span&gt;&lt;/li&gt;&lt;/ul&gt;" style="text;strokeColor=default;fillColor=default;html=1;whiteSpace=wrap;verticalAlign=middle;overflow=hidden;dashed=1;" vertex="1" parent="1">
          <mxGeometry x="350" y="5690" width="210" height="220" as="geometry" />
        </mxCell>
        <mxCell id="lRVaUMlQe8sPBL5cJsWr-88" value="&lt;ul&gt;&lt;li&gt;&lt;span style=&quot;font-size: 19px;&quot;&gt;Annie Leonhart&lt;/span&gt;&lt;/li&gt;&lt;li&gt;&lt;span style=&quot;font-size: 19px;&quot;&gt;Conny Springer&lt;/span&gt;&lt;/li&gt;&lt;li&gt;&lt;span style=&quot;font-size: 19px;&quot;&gt;Eren Kruger&lt;/span&gt;&lt;/li&gt;&lt;li&gt;&lt;span style=&quot;font-size: 19px;&quot;&gt;Falco&lt;br&gt;&lt;/span&gt;&lt;/li&gt;&lt;li&gt;&lt;span style=&quot;font-size: 19px;&quot;&gt;Hange Zoe&amp;nbsp;&lt;/span&gt;&lt;/li&gt;&lt;li&gt;&lt;span style=&quot;font-size: 19px;&quot;&gt;Kenny Ackerman&lt;/span&gt;&lt;/li&gt;&lt;li&gt;&lt;span style=&quot;font-size: 19px;&quot;&gt;Porco&lt;br&gt;&lt;/span&gt;&lt;/li&gt;&lt;li&gt;&lt;span style=&quot;font-size: 19px;&quot;&gt;Yelena&lt;/span&gt;&lt;/li&gt;&lt;/ul&gt;" style="text;strokeColor=default;fillColor=default;html=1;whiteSpace=wrap;verticalAlign=middle;overflow=hidden;dashed=1;" vertex="1" parent="1">
          <mxGeometry x="810" y="5690" width="210" height="220" as="geometry" />
        </mxCell>
        <mxCell id="lRVaUMlQe8sPBL5cJsWr-90" value="&lt;ul&gt;&lt;li&gt;&lt;span style=&quot;font-size: 19px;&quot;&gt;Bertholdt Hoover&lt;/span&gt;&lt;/li&gt;&lt;li&gt;&lt;span style=&quot;font-size: 19px;&quot;&gt;Floch&lt;/span&gt;&lt;/li&gt;&lt;li&gt;&lt;span style=&quot;font-size: 19px;&quot;&gt;Gabi&lt;/span&gt;&lt;/li&gt;&lt;li&gt;&lt;span style=&quot;font-size: 19px;&quot;&gt;Reiner&amp;nbsp;&lt;/span&gt;&lt;/li&gt;&lt;li&gt;&lt;span style=&quot;font-size: 19px;&quot;&gt;Zeke&lt;/span&gt;&lt;/li&gt;&lt;/ul&gt;&lt;span style=&quot;font-size: 19px;&quot;&gt;&lt;br&gt;&lt;/span&gt;" style="text;strokeColor=default;fillColor=default;html=1;whiteSpace=wrap;verticalAlign=middle;overflow=hidden;dashed=1;" vertex="1" parent="1">
          <mxGeometry x="1222.5" y="5740" width="239" height="150" as="geometry" />
        </mxCell>
        <mxCell id="lRVaUMlQe8sPBL5cJsWr-92" value="&lt;font style=&quot;font-size: 36px;&quot;&gt;Mf Hisroia&lt;/font&gt;" style="text;strokeColor=default;fillColor=default;html=1;whiteSpace=wrap;verticalAlign=middle;overflow=hidden;dashed=1;align=center;" vertex="1" parent="1">
          <mxGeometry x="1627" y="5760" width="216" height="120" as="geometry" />
        </mxCell>
        <mxCell id="lRVaUMlQe8sPBL5cJsWr-97" style="edgeStyle=orthogonalEdgeStyle;rounded=0;orthogonalLoop=1;jettySize=auto;html=1;entryX=0.5;entryY=0;entryDx=0;entryDy=0;" edge="1" parent="1" source="lRVaUMlQe8sPBL5cJsWr-94" target="lRVaUMlQe8sPBL5cJsWr-96">
          <mxGeometry relative="1" as="geometry" />
        </mxCell>
        <mxCell id="lRVaUMlQe8sPBL5cJsWr-94" value="&lt;font style=&quot;font-size: 42px;&quot;&gt;Plots (Top 5)&lt;/font&gt;" style="rounded=0;whiteSpace=wrap;html=1;fillColor=#dae8fc;strokeColor=#6c8ebf;" vertex="1" parent="1">
          <mxGeometry x="-423.5" y="3030.5" width="310" height="129" as="geometry" />
        </mxCell>
        <mxCell id="lRVaUMlQe8sPBL5cJsWr-96" value="&lt;ol style=&quot;&quot;&gt;&lt;li style=&quot;&quot;&gt;&lt;font style=&quot;font-size: 19px;&quot;&gt;Eren Manupliting the whole series&lt;/font&gt;&lt;/li&gt;&lt;li style=&quot;&quot;&gt;&lt;font style=&quot;font-size: 19px;&quot;&gt;Reiner and Hoover are the Armord and Colossal&amp;nbsp;&lt;/font&gt;&lt;/li&gt;&lt;li style=&quot;&quot;&gt;&lt;span style=&quot;font-size: 19px;&quot;&gt;The Beast titan is actually Eren&#39;s Brother&amp;nbsp;&lt;/span&gt;&lt;/li&gt;&lt;/ol&gt;" style="text;strokeColor=#9673a6;fillColor=#e1d5e7;html=1;whiteSpace=wrap;verticalAlign=middle;overflow=hidden;rounded=1;glass=0;align=left;dashed=1;" vertex="1" parent="1">
          <mxGeometry x="-501.5" y="3320" width="462.5" height="180" as="geometry" />
        </mxCell>
        <mxCell id="lRVaUMlQe8sPBL5cJsWr-105" style="edgeStyle=orthogonalEdgeStyle;rounded=0;orthogonalLoop=1;jettySize=auto;html=1;entryX=0.464;entryY=0;entryDx=0;entryDy=0;entryPerimeter=0;" edge="1" parent="1" source="JqF0MTTLDhTBCdcnNIAP-38" target="JqF0MTTLDhTBCdcnNIAP-53">
          <mxGeometry relative="1" as="geometry" />
        </mxCell>
        <mxCell id="lRVaUMlQe8sPBL5cJsWr-108" style="edgeStyle=orthogonalEdgeStyle;rounded=0;orthogonalLoop=1;jettySize=auto;html=1;entryX=0.5;entryY=0;entryDx=0;entryDy=0;" edge="1" parent="1" source="lRVaUMlQe8sPBL5cJsWr-106" target="lRVaUMlQe8sPBL5cJsWr-40">
          <mxGeometry relative="1" as="geometry" />
        </mxCell>
        <mxCell id="lRVaUMlQe8sPBL5cJsWr-106" value="&lt;span style=&quot;font-size: 30px;&quot;&gt;Best&lt;/span&gt;" style="rounded=1;whiteSpace=wrap;html=1;fillColor=#fff2cc;strokeColor=#d6b656;" vertex="1" parent="1">
          <mxGeometry x="1620" y="2081" width="310" height="98" as="geometry" />
        </mxCell>
        <mxCell id="lRVaUMlQe8sPBL5cJsWr-109" value="&lt;span style=&quot;font-size: 30px;&quot;&gt;Best Openings&lt;/span&gt;" style="rounded=1;whiteSpace=wrap;html=1;fillColor=#fff2cc;strokeColor=#d6b656;" vertex="1" parent="1">
          <mxGeometry x="1108.75" y="2508.5" width="310" height="98" as="geometry" />
        </mxCell>
        <mxCell id="lRVaUMlQe8sPBL5cJsWr-110" value="&lt;span style=&quot;font-size: 30px;&quot;&gt;Best Endings&lt;/span&gt;" style="rounded=1;whiteSpace=wrap;html=1;fillColor=#fff2cc;strokeColor=#d6b656;" vertex="1" parent="1">
          <mxGeometry x="680" y="2499" width="310" height="98" as="geometry" />
        </mxCell>
        <mxCell id="lRVaUMlQe8sPBL5cJsWr-81" value="" style="line;strokeWidth=2;direction=south;html=1;" vertex="1" parent="1">
          <mxGeometry x="426.25" y="1780" width="10" height="1271" as="geometry" />
        </mxCell>
      </root>
    </mxGraphModel>
  </diagram>
</mxfile>
